<svg width="522" height="348" viewBox="0 0 522 348" fill="none" xmlns="http://www.w3.org/2000/svg">
<g clip-path="url(#clip0_18_133)">
<path d="M248.074 177.525H225.16L226.923 158.724H245.137L248.074 177.525Z" fill="#A0616A"/>
<path opacity="0.1" d="M248.074 177.525H225.16L226.923 158.724H245.137L248.074 177.525Z" fill="black"/>
<path d="M76.7482 107.046C87.1114 107.046 95.5124 98.6447 95.5124 88.2818C95.5124 77.9188 87.1114 69.518 76.7482 69.518C66.385 69.518 57.984 77.9188 57.984 88.2818C57.984 98.6447 66.385 107.046 76.7482 107.046Z" fill="#FF6884"/>
<path d="M161.346 333.299C161.453 334.196 161.483 335.032 161.422 335.853H116.292C115.882 335.032 115.532 334.181 115.228 333.299C109.71 317.446 118.785 291.058 107.278 251.933C98.7357 222.901 82.7904 200.192 75.3574 189.613C66.2219 176.601 55.8704 164.593 43.8772 145.411C41.278 141.261 38.6027 136.762 35.8362 131.852C34.909 130.211 24.223 111.165 25.1959 110.572C25.6519 110.298 28.4791 114.144 29.4368 115.436C37.8882 126.867 42.798 131.867 49.8358 140.091C54.1072 145.076 59.1537 151.232 66.2371 160.732C84.4017 185.068 93.4763 197.228 96.638 206.333C97.474 208.765 101.928 221.928 110.318 238.253C114.605 246.583 116.748 250.748 117.919 250.413C121.232 249.456 116.763 214.967 102.718 180.493C100.316 174.625 98.5228 170.871 95.118 163.773C89.585 152.19 58.7737 87.8174 36.125 49.2852C33.2825 44.4363 30.5617 40.013 28.0536 36.137C27.5671 35.4074 27.0959 34.693 26.6399 34.0091C23.4782 29.297 20.6814 25.5729 18.3557 23.1714C17.1244 21.8945 13.9931 18.2769 7.71535 11.0113C5.22245 8.12321 3.39838 5.98003 2.16715 4.41437C1.98475 4.18643 1.81756 3.95839 1.68082 3.76078C0.191108 1.81521 -0.23446 0.872718 0.115122 0.371182C0.616764 -0.343272 2.54716 0.0671576 4.66004 0.811951C4.88809 0.887935 5.13126 0.97913 5.35929 1.07032C7.65458 1.92153 9.9802 3.0312 10.7554 3.41121C17.8692 6.83123 24.8159 12.9568 31.2456 20.2378C33.6321 22.9281 35.9274 25.7705 38.1467 28.689C45.2908 38.113 51.5231 48.3731 56.2352 56.8093C62.0113 67.2061 65.4771 74.8518 65.4771 74.8518C81.6047 110.466 99.4957 151.202 100.438 150.852C101.472 150.472 81.6351 99.7648 75.859 72.2221C73.9285 62.9957 73.5789 56.3684 76.1174 55.0916C76.2086 55.046 76.2998 55.0004 76.4062 54.97C76.8014 54.8332 77.1662 54.8484 77.3638 54.8636C77.3638 54.8636 79.7199 54.5596 82.1976 55.0916C85.2833 55.7604 88.7946 64.3485 92.2147 76.4021C101.107 107.471 109.558 161.493 109.558 161.493C118.01 215.529 130.839 259.26 133.879 258.773C135.566 258.5 133.149 244.926 135.399 222.293C136.98 206.424 138.774 206.91 144.519 178.213C153.64 132.688 158.2 109.934 158.2 109.812C158.154 108.854 158.033 106.924 158.321 104.918C158.625 102.744 159.401 100.464 161.24 99.172C164.037 97.196 168.536 98.0472 170.36 99.172C171.819 100.084 172.564 101.756 172.731 104.158C173.735 119.267 152.028 163.073 144.519 222.293C140.78 251.796 138.728 267.893 144.519 289.174C150.25 310.271 160.237 323.708 161.346 333.299Z" fill="#F2F2F2"/>
<path d="M360.654 333.299C360.547 334.196 360.517 335.032 360.578 335.853H405.708C406.118 335.032 406.468 334.181 406.772 333.299C412.29 317.446 403.215 291.058 414.722 251.933C423.264 222.901 439.21 200.192 446.643 189.613C455.778 176.601 466.13 164.593 478.123 145.411C480.722 141.261 483.397 136.762 486.164 131.852C487.091 130.211 497.777 111.165 496.804 110.572C496.348 110.298 493.521 114.144 492.563 115.436C484.112 126.867 479.202 131.867 472.164 140.091C467.893 145.076 462.846 151.232 455.763 160.732C437.598 185.068 428.524 197.228 425.362 206.333C424.526 208.765 420.072 221.928 411.682 238.253C407.395 246.583 405.252 250.748 404.081 250.413C400.768 249.456 405.237 214.966 419.282 180.493C421.684 174.625 423.477 170.871 426.882 163.773C432.415 152.19 463.226 87.8174 485.875 49.2852C488.717 44.4363 491.438 40.013 493.946 36.137C494.433 35.4074 494.904 34.693 495.36 34.0091C498.522 29.297 501.319 25.5729 503.644 23.1714C504.876 21.8945 508.007 18.2769 514.285 11.0113C516.778 8.12319 518.602 5.98002 519.833 4.41436C520.015 4.18641 520.182 3.95837 520.319 3.76076C521.809 1.8152 522.234 0.872702 521.885 0.371165C521.383 -0.343289 519.453 0.0671467 517.34 0.811934C517.112 0.887918 516.869 0.979113 516.641 1.07031C514.345 1.92151 512.02 3.03118 511.245 3.41119C504.131 6.83121 497.184 12.9568 490.754 20.2377C488.368 22.9281 486.073 25.7705 483.853 28.689C476.709 38.113 470.477 48.3731 465.765 56.8092C459.989 67.2061 456.523 74.8518 456.523 74.8518C440.395 110.466 422.504 151.202 421.562 150.852C420.528 150.472 440.365 99.7648 446.141 72.2221C448.072 62.9957 448.421 56.3684 445.883 55.0916C445.791 55.046 445.7 55.0004 445.594 54.97C445.199 54.8331 444.834 54.8484 444.636 54.8636C444.636 54.8636 442.28 54.5596 439.802 55.0916C436.717 55.7604 433.205 64.3484 429.785 76.4021C420.893 107.471 412.442 161.492 412.442 161.492C403.99 215.529 391.161 259.26 388.121 258.773C386.434 258.5 388.851 244.926 386.601 222.293C385.02 206.424 383.226 206.91 377.481 178.213C368.36 132.688 363.8 109.934 363.8 109.812C363.846 108.854 363.967 106.924 363.679 104.918C363.375 102.744 362.599 100.464 360.76 99.172C357.963 97.196 353.464 98.0472 351.64 99.172C350.181 100.084 349.436 101.756 349.269 104.158C348.265 119.266 369.972 163.073 377.481 222.293C381.22 251.796 383.272 267.893 377.481 289.174C371.75 310.271 361.763 323.708 360.654 333.299Z" fill="#F2F2F2"/>
<path d="M419.574 335.054C419.574 335.327 419.353 335.548 419.08 335.548H77.0187V334.561H419.08C419.353 334.561 419.574 334.782 419.574 335.054Z" fill="#E6E6E6"/>
<path d="M215.195 314.135L219.046 331.415L231.102 329.74L227.753 311.991L215.195 314.135Z" fill="#A0616A"/>
<path d="M279.831 314.135L275.979 331.415L263.923 329.74L267.272 311.991L279.831 314.135Z" fill="#A0616A"/>
<path d="M302.633 274.437L280.934 208.341C276.079 193.555 262.277 183.559 246.713 183.559C229.403 183.559 214.54 195.874 211.324 212.883L199.323 276.34C197.605 285.427 204.378 293.847 213.52 294.223V337.61H216.869V294.241H287.198V337.61H290.547V294.069C299.595 292.729 305.597 283.466 302.633 274.437Z" fill="#CCCCCC"/>
<path d="M257.727 229.439L216.869 230.779C216.869 230.779 201.464 258.24 228.591 261.924C255.718 265.608 279.496 261.589 280.5 249.868C281.505 238.147 273.133 229.104 257.727 229.439Z" fill="#2F2E41"/>
<path d="M224.572 232.453C224.572 232.453 209.166 234.128 207.827 238.481C206.487 242.835 205.817 261.924 205.817 261.924L211.846 317.182L228.926 315.172L225.242 262.259L245.001 257.905L224.572 232.453Z" fill="#2F2E41"/>
<path d="M221.223 323.545C221.223 323.545 216.154 320.196 214.837 321.703C213.52 323.21 206.487 330.577 206.487 330.577L194.096 338.28C194.096 338.28 183.379 348.327 198.45 347.992C213.52 347.657 221.223 343.12 221.223 343.12C221.223 343.12 235.624 342.968 235.289 338.95C234.954 334.931 230.094 324.398 230.094 324.398L221.223 323.545Z" fill="#2F2E41"/>
<path d="M270.453 232.453C270.453 232.453 285.859 234.128 287.198 238.481C288.538 242.835 289.208 261.924 289.208 261.924L283.18 317.182L266.1 315.172L269.784 262.259L250.024 257.905L270.453 232.453Z" fill="#2F2E41"/>
<path d="M273.802 323.545C273.802 323.545 278.871 320.196 280.188 321.703C281.505 323.21 288.538 330.577 288.538 330.577L300.929 338.28C300.929 338.28 311.646 348.327 296.576 347.992C281.505 347.657 273.802 343.12 273.802 343.12C273.802 343.12 259.402 342.968 259.736 338.95C260.071 334.931 264.931 324.398 264.931 324.398L273.802 323.545Z" fill="#2F2E41"/>
<path d="M245.671 167.819H226.229L211.511 174.517L214.86 218.723C214.86 218.723 210.685 232.162 215.787 232.978C220.888 233.793 249.02 238.816 256.722 234.463C264.425 230.109 271.123 231.449 271.123 231.449L262.081 172.842L245.671 167.819Z" fill="#3F3D56"/>
<path d="M236.461 165.977C246.449 165.977 254.545 157.88 254.545 147.893C254.545 137.905 246.449 129.808 236.461 129.808C226.473 129.808 218.376 137.905 218.376 147.893C218.376 157.88 226.473 165.977 236.461 165.977Z" fill="#A0616A"/>
<path d="M217.855 150.853L220.98 154.925L225.279 148.897C225.279 148.897 225.637 154.256 237.46 152.246C249.282 150.237 252.148 149.567 252.148 149.567L253.581 155.595C253.581 155.595 255.014 151.576 255.014 148.897C255.014 146.218 263.613 139.855 254.656 134.497C245.7 129.139 250.357 124.115 239.251 124.45C228.145 124.785 221.338 124.45 220.263 128.469C219.188 132.487 216.681 137.511 217.039 141.864C217.397 146.218 217.855 150.853 217.855 150.853Z" fill="#2F2E41"/>
<path d="M252.069 230.137C247.715 231.583 243.44 230.509 242.52 227.738C241.6 224.967 244.383 221.549 248.739 220.103C250.471 219.501 252.322 219.323 254.137 219.584L272.662 213.689L275.242 222.441L256.706 227.323C255.407 228.618 253.817 229.583 252.069 230.137Z" fill="#A0616A"/>
<path d="M167.189 210.563C163.02 208.648 160.63 204.944 161.849 202.291C163.069 199.638 167.436 199.042 171.606 200.958C173.282 201.701 174.756 202.835 175.904 204.264L193.465 212.603L189.376 220.76L172.498 211.673C170.665 211.732 168.845 211.352 167.189 210.563Z" fill="#A0616A"/>
<path d="M211.45 174.422C211.45 174.422 218.418 177.266 218.202 184.855C217.986 192.445 212.659 203.051 212.659 203.051C212.659 203.051 212.288 226.995 205.741 229.587C199.195 232.179 178.964 215.569 178.964 215.569L183.637 206.643L192.37 205.636L211.45 174.422Z" fill="#3F3D56"/>
<path d="M257.057 174.182C257.057 174.182 264.09 171.503 269.114 177.196C274.137 182.889 277.486 194.275 277.486 194.275C277.486 194.275 293.562 212.025 290.547 218.388C287.533 224.751 261.411 226.425 261.411 226.425L258.732 216.713L264.425 210.015L257.057 174.182Z" fill="#3F3D56"/>
<path d="M275.258 240.323H218.093C214.895 240.323 212.294 237.722 212.294 234.524V201.246C212.294 198.049 214.895 195.448 218.093 195.448H275.258C278.455 195.448 281.057 198.049 281.057 201.246V234.524C281.057 237.722 278.455 240.323 275.258 240.323Z" fill="#3661EB"/>
<path d="M124.509 228.027C123.093 227.284 120.861 230.39 119.654 229.668C118.451 228.948 120.248 225.614 119.571 220.945C119.449 220.103 118.68 214.798 116.542 214.332C112.489 213.45 107.082 230.732 100.971 229.933C99.6293 229.758 98.1116 228.694 93.9562 228.008C92.3031 227.735 91.3918 227.713 90.859 228.258C90.1029 229.032 90.7692 230.272 91.2603 233.214C91.9968 237.626 91.0156 237.937 91.9124 241.266C92.5782 243.738 93.4686 244.865 92.883 245.552C92.0544 246.525 89.7364 244.896 88.547 245.903C87.3333 246.931 88.1139 250.009 89.0486 252.097C90.8026 256.017 93.6075 257.588 95.8951 259.648C98.3811 261.887 101.418 265.75 103.193 272.774L116.689 335.695C114.205 322.608 108.02 286.348 106.29 272.523C105.791 268.532 105.412 264.405 107.865 261.173C110.226 258.061 114.928 256.153 119.551 251.498C120.091 250.954 121.575 249.422 121.159 248.25C120.815 247.282 119.485 247.442 119.15 246.542C118.701 245.336 120.728 244.068 122.465 241.286C123.69 239.324 124.148 237.607 124.542 236.13C124.661 235.685 126.394 229.016 124.509 228.027Z" fill="#F2F2F2"/>
<path d="M69.1678 299.638C68.3945 300.118 69.2749 302.11 68.572 302.494C67.8716 302.876 66.7539 301.033 64.2672 300.018C63.8187 299.835 60.9927 298.681 60.1473 299.597C58.5447 301.331 65.4671 308.971 63.3118 311.74C62.8388 312.348 61.8784 312.786 60.3427 314.627C59.7317 315.36 59.4582 315.801 59.5721 316.22C59.7338 316.814 60.5344 316.845 62.1201 317.452C64.4981 318.364 64.3676 318.935 66.2605 319.456C67.6657 319.842 68.4757 319.73 68.6441 320.216C68.8824 320.903 67.4144 321.571 67.5653 322.445C67.7194 323.337 69.4554 323.842 70.7503 323.986C73.1803 324.257 74.7607 323.333 76.4318 322.805C78.2479 322.231 81.0201 321.855 84.9798 323.01L119.756 334.541C112.616 331.984 93.0349 324.558 85.7504 321.418C83.6475 320.511 81.5127 319.506 80.6338 317.37C79.7877 315.313 80.2076 312.455 79.257 308.843C79.146 308.421 78.8221 307.25 78.1269 307.117C77.5521 307.006 77.2472 307.705 76.7091 307.61C75.9872 307.482 75.95 306.121 75.0857 304.466C74.4763 303.299 73.7654 302.579 73.1542 301.959C72.9699 301.773 70.1972 298.998 69.1678 299.638Z" fill="#F2F2F2"/>
<path d="M86.7709 293.578L83.7346 289.697L83.7532 289.25C83.8398 287.18 83.4635 285.443 82.6345 284.084C82.5028 283.868 82.36 283.659 82.2147 283.446C81.6385 282.601 80.922 281.551 80.7089 279.944C80.592 279.046 80.4773 276.873 81.9359 276.252C82.3263 276.081 82.6997 276.078 83.0252 276.144C83.0256 276.077 83.027 276.01 83.028 275.937C83.0528 275.047 83.2145 274.572 83.3702 274.115C83.4897 273.764 83.6136 273.401 83.7054 272.667C83.7458 272.345 83.764 272.072 83.7797 271.843C83.8285 271.15 83.9258 270.298 84.7271 269.818C85.6014 269.335 86.4792 269.763 87.0607 270.046C88.0982 270.551 88.7052 271.002 89.1076 271.301C89.2543 271.411 89.4202 271.533 89.4845 271.563C90.0064 271.797 91.9997 270.049 92.7537 269.396C94.4433 267.921 95.9053 266.645 97.3086 267.419C98.3132 267.972 98.6482 269.315 98.3273 271.521C98.227 272.208 98.0356 272.801 97.8435 273.291C98.2496 273.286 98.6828 273.394 99.0535 273.754C99.93 274.608 99.6854 276.156 98.3302 278.358C97.9946 278.906 97.5409 279.641 96.7179 280.368C96.33 280.71 95.9507 280.969 95.6228 281.185C95.7348 281.382 95.8186 281.619 95.8336 281.907C95.8791 282.754 95.3466 283.499 94.2189 284.094C92.9888 284.766 91.8673 285.143 90.8789 285.478C90.0164 285.77 89.2746 286.025 88.7844 286.374C87.8835 287.035 87.6205 288.244 87.3696 289.757L86.7709 293.578Z" fill="#F2F2F2"/>
<path d="M73.6393 267.422L70.6554 271.344L70.2178 271.439C68.1936 271.881 66.6085 272.685 65.5048 273.832C65.3293 274.014 65.1631 274.205 64.9938 274.4C64.3228 275.171 63.4889 276.131 61.988 276.744C61.1497 277.085 59.0763 277.747 58.1054 276.494C57.8409 276.16 57.7438 275.799 57.7252 275.468C57.6603 275.484 57.5947 275.5 57.524 275.518C56.6565 275.719 56.1565 275.683 55.6748 275.649C55.3046 275.622 54.9226 275.594 54.189 275.692C53.8672 275.734 53.5992 275.786 53.3735 275.829C52.69 275.958 51.8416 276.08 51.1741 275.426C50.4848 274.703 50.6765 273.745 50.803 273.111C51.0282 271.979 51.3103 271.278 51.4976 270.813C51.5664 270.643 51.643 270.451 51.6556 270.382C51.7494 269.818 49.5531 268.333 48.7296 267.769C46.8746 266.509 45.2695 265.419 45.6621 263.865C45.9422 262.753 47.1567 262.088 49.3719 261.839C50.0617 261.762 50.6838 261.797 51.2071 261.858C51.0984 261.467 51.093 261.02 51.3475 260.57C51.9515 259.506 53.5107 259.35 55.9843 260.102C56.5999 260.288 57.4262 260.54 58.3378 261.152C58.7668 261.44 59.1134 261.741 59.4055 262.004C59.5682 261.845 59.7765 261.704 60.0512 261.617C60.8588 261.358 61.7144 261.684 62.5759 262.624C63.538 263.643 64.1875 264.632 64.7615 265.504C65.2634 266.264 65.6977 266.917 66.1599 267.302C67.0277 268.006 68.2641 267.954 69.7911 267.813L73.6393 267.422Z" fill="#F2F2F2"/>
<path d="M63.9036 256.476L60.8672 252.595L60.8858 252.148C60.9725 250.078 60.5961 248.341 59.7672 246.982C59.6354 246.766 59.4926 246.557 59.3473 246.344C58.7711 245.499 58.0546 244.449 57.8416 242.842C57.7246 241.944 57.6099 239.771 59.0686 239.15C59.4589 238.979 59.8324 238.976 60.1578 239.042C60.1582 238.975 60.1596 238.908 60.1606 238.835C60.1855 237.945 60.3471 237.47 60.5029 237.013C60.6224 236.662 60.7462 236.299 60.838 235.565C60.8784 235.243 60.8966 234.971 60.9124 234.741C60.9611 234.048 61.0584 233.196 61.8597 232.716C62.734 232.233 63.6118 232.661 64.1933 232.944C65.2308 233.449 65.8378 233.9 66.2403 234.199C66.387 234.309 66.5529 234.431 66.6171 234.461C67.139 234.695 69.1323 232.947 69.8863 232.294C71.5759 230.819 73.0379 229.543 74.4412 230.317C75.4459 230.87 75.7808 232.213 75.46 234.419C75.3597 235.106 75.1682 235.699 74.9762 236.189C75.3822 236.184 75.8154 236.292 76.1862 236.652C77.0626 237.506 76.818 239.054 75.4628 241.256C75.1272 241.804 74.6735 242.539 73.8506 243.266C73.4627 243.608 73.0833 243.867 72.7554 244.083C72.8674 244.28 72.9512 244.517 72.9662 244.805C73.0117 245.652 72.4792 246.397 71.3516 246.992C70.1214 247.664 69 248.041 68.0116 248.376C67.149 248.668 66.4072 248.923 65.917 249.272C65.0161 249.933 64.7531 251.142 64.5023 252.655L63.9036 256.476Z" fill="#F2F2F2"/>
<path d="M118.042 334.766L116.831 334.757L115.885 335.502C115.81 335.417 115.621 335.234 115.328 334.945C113.723 333.362 108.837 328.546 102.172 320.328C97.5189 314.591 93.1096 308.462 89.0635 302.109C85.0113 295.746 82.3192 290.697 80.1547 286.64C78.5226 283.58 77.0166 280.636 75.5512 277.767C71.6339 270.105 67.9328 262.867 62.8162 255.483C61.6748 253.834 59.2974 250.402 54.8966 247.904C52.344 246.455 49.489 245.531 46.4113 245.162L46.7006 242.756C50.0993 243.167 53.2596 244.191 56.0939 245.799C60.9732 248.569 63.5638 252.308 64.8085 254.105C70.0153 261.62 73.7513 268.928 77.7059 276.664C79.1671 279.522 80.6656 282.454 82.2913 285.501C84.4355 289.521 87.1046 294.525 91.105 300.806C95.1019 307.084 99.4578 313.137 104.051 318.803C110.633 326.918 115.447 331.661 117.028 333.22C117.872 334.052 118.049 334.227 118.042 334.766Z" fill="#F2F2F2"/>
<path d="M44.6495 250.767C44.565 250.819 44.4782 250.87 44.3879 250.917C42.5743 251.904 40.3012 251.855 37.6316 250.773C36.3781 250.262 35.376 249.416 33.3776 247.728C33.0689 247.469 31.5258 246.137 29.8046 244.056C28.6794 242.697 28.3222 242.059 28.2784 241.328C28.2284 240.514 28.4948 239.761 28.9132 239.106C28.7654 238.925 28.6613 238.709 28.619 238.448C28.4405 237.372 29.444 236.91 29.9828 236.653C30.2583 236.527 30.6034 236.373 30.9364 236.143C31.4618 235.783 31.6534 235.442 31.9454 234.929C32.2244 234.438 32.5714 233.827 33.2514 233.188C34.588 231.923 36.1412 231.565 36.653 231.447C39.3401 230.816 41.5074 231.872 44.0165 233.095C44.5182 233.341 46.292 234.27 48.1049 235.924C49.4128 237.118 49.7514 237.798 49.9219 238.354C50.2749 239.495 50.0235 240.427 49.2694 242.609C48.4839 244.89 48.0887 246.033 47.6487 246.852C46.6224 248.754 45.9781 249.948 44.6495 250.767Z" fill="#F2F2F2"/>
<path d="M138.321 206.715L154.144 203.036L155.279 206.323L162.934 204.255L167.983 202.891L172.886 193.365L169.407 183.281L159.047 183.184L155.879 183.807L147.042 185.545C146.293 186.782 146.702 188.393 147.95 189.124L148.359 189.364L135.926 191.516C135.926 191.516 131.954 198.584 138.321 206.715Z" fill="#3F3D56"/>
<path d="M155.879 183.807L162.934 204.255L167.983 202.891L172.886 193.365L169.407 183.281L159.047 183.184L155.879 183.807Z" fill="#2F2E41"/>
<path d="M153.202 184.659C154.291 184.418 155.076 183.781 154.956 183.236C154.835 182.692 153.855 182.446 152.765 182.687C151.676 182.928 150.891 183.565 151.012 184.11C151.132 184.654 152.113 184.9 153.202 184.659Z" fill="#3F3D56"/>
<path d="M401.545 336.971L393.952 320.923L393.906 320.956V300.098H387.076V320.956L387.031 320.923L379.438 337.426C379.213 337.821 379.35 338.324 379.745 338.55C380.081 338.741 380.503 338.674 380.763 338.388L388.53 329.301L389.786 337.575C389.837 338.027 390.244 338.353 390.696 338.303C391.079 338.261 391.382 337.958 391.424 337.575L392.667 329.392L400.22 337.933C400.526 338.27 401.047 338.294 401.384 337.988C401.669 337.729 401.736 337.306 401.545 336.971Z" fill="#2F2E41"/>
<path d="M347.303 276.701C346.094 284.701 363.592 298.764 389.389 302.663C415.185 306.563 440.353 300.931 441.562 292.93C442.772 284.93 422.717 276.76 396.92 272.86C371.124 268.961 348.512 268.7 347.303 276.701Z" fill="#3661EB"/>
<path opacity="0.3" d="M347.303 276.701C346.094 284.701 363.592 298.764 389.389 302.663C415.185 306.563 440.353 300.931 441.562 292.93C442.772 284.93 422.717 276.76 396.92 272.86C371.124 268.961 348.512 268.7 347.303 276.701Z" fill="black"/>
<path d="M348.319 275.529C347.323 282.118 364.399 293.427 390.195 297.327C415.992 301.226 440.83 298.439 441.826 291.851C442.822 285.262 422.717 276.759 396.92 272.86C371.124 268.961 349.315 268.941 348.319 275.529Z" fill="#3661EB"/>
<path d="M406.736 177.579H310.353C306.473 177.579 303.316 174.423 303.316 170.543V97.6628C303.316 93.7831 306.473 90.6263 310.353 90.6263H406.736C410.616 90.6263 413.772 93.7831 413.772 97.6628V170.543C413.772 174.423 410.616 177.579 406.736 177.579Z" fill="white"/>
<path d="M406.736 177.579H310.353C306.473 177.579 303.316 174.423 303.316 170.543V97.6628C303.316 93.7831 306.473 90.6263 310.353 90.6263H406.736C410.616 90.6263 413.772 93.7831 413.772 97.6628V170.543C413.772 174.423 410.616 177.579 406.736 177.579ZM310.353 91.8013C307.121 91.8013 304.491 94.4308 304.491 97.6628V170.543C304.491 173.775 307.121 176.404 310.353 176.404H406.736C409.968 176.404 412.597 173.775 412.597 170.543V97.6628C412.597 94.4308 409.968 91.8013 406.736 91.8013H310.353Z" fill="#3F3D56"/>
<path d="M396.146 99.4391C397.12 99.4391 397.909 98.65 397.909 97.6765C397.909 96.7031 397.12 95.914 396.146 95.914C395.173 95.914 394.384 96.7031 394.384 97.6765C394.384 98.65 395.173 99.4391 396.146 99.4391Z" fill="#3F3D56"/>
<path d="M400.847 99.4391C401.82 99.4391 402.609 98.65 402.609 97.6765C402.609 96.7031 401.82 95.914 400.847 95.914C399.873 95.914 399.084 96.7031 399.084 97.6765C399.084 98.65 399.873 99.4391 400.847 99.4391Z" fill="#3F3D56"/>
<path d="M405.547 99.4391C406.52 99.4391 407.31 98.65 407.31 97.6765C407.31 96.7031 406.52 95.914 405.547 95.914C404.574 95.914 403.784 96.7031 403.784 97.6765C403.784 98.65 404.574 99.4391 405.547 99.4391Z" fill="#3F3D56"/>
<path d="M313.304 126.171C312.818 126.171 312.423 126.567 312.423 127.053C312.423 127.29 312.515 127.509 312.681 127.67C312.848 127.842 313.068 127.934 313.304 127.934H404.372C404.858 127.934 405.253 127.539 405.253 127.053C405.253 126.816 405.162 126.596 404.996 126.435C404.828 126.263 404.609 126.171 404.372 126.171H313.304Z" fill="#E6E6E6"/>
<path d="M387.921 125.878V128.228H313.304C312.981 128.228 312.687 128.098 312.476 127.881C312.259 127.669 312.129 127.376 312.129 127.053C312.129 126.406 312.658 125.878 313.304 125.878H387.921Z" fill="#3661EB"/>
<path d="M402.903 121.471H391.152C389.857 121.471 388.802 120.417 388.802 119.121C388.802 117.825 389.857 116.771 391.152 116.771H402.903C404.199 116.771 405.253 117.825 405.253 119.121C405.253 120.417 404.199 121.471 402.903 121.471Z" fill="#E6E6E6"/>
<path d="M325.936 109.133H314.186C312.89 109.133 311.836 108.079 311.836 106.783C311.836 105.487 312.89 104.433 314.186 104.433H325.936C327.232 104.433 328.286 105.487 328.286 106.783C328.286 108.079 327.232 109.133 325.936 109.133Z" fill="#E6E6E6"/>
<path d="M313.304 152.61C312.818 152.61 312.423 153.005 312.423 153.491C312.423 153.728 312.515 153.947 312.681 154.109C312.848 154.28 313.068 154.372 313.304 154.372H404.372C404.858 154.372 405.253 153.977 405.253 153.491C405.253 153.254 405.162 153.035 404.996 152.873C404.828 152.701 404.609 152.61 404.372 152.61H313.304Z" fill="#E6E6E6"/>
<path d="M342.681 152.316V154.666H313.304C312.981 154.666 312.687 154.537 312.476 154.319C312.259 154.108 312.129 153.814 312.129 153.491C312.129 152.845 312.658 152.316 313.304 152.316H342.681Z" fill="#3661EB"/>
<path d="M402.903 147.91H391.152C389.857 147.91 388.802 146.856 388.802 145.559C388.802 144.263 389.857 143.209 391.152 143.209H402.903C404.199 143.209 405.253 144.263 405.253 145.559C405.253 146.856 404.199 147.91 402.903 147.91Z" fill="#E6E6E6"/>
<circle cx="316" cy="275" r="132" fill="black" fill-opacity="0.25"/>
</g>
<defs>
<clipPath id="clip0_18_133">
<rect width="522" height="348" fill="white"/>
</clipPath>
</defs>
</svg>
